# xmcd CD database file
#
# Track frame offsets:
#	150
#	22367
#	40600
#	62825
#
# Disc length: 1076 seconds
#
# Revision: 4
# Processed by: cddbd v1.5.1PL0 Copyright (c) Steve Scherf et al.
# Submitted via: CDex 1.51
#
DISCID=31043204
DTITLE=move - How To See You Again - Noizy Tribe
DYEAR=2005
DGENRE=J-Pop
TTITLE0=How To See You Again
TTITLE1=Noizy Tribe
TTITLE2=How To See You Again (Instrumental)
TTITLE3=Noizy Tribe (Instrumental)
EXTD=YEAR: 2005
EXTT0=
EXTT1=
EXTT2=
EXTT3=
PLAYORDER=
